<svg width="1280" height="640" viewBox="-400 -240 2560 1280" fill="none" xmlns="http://www.w3.org/2000/svg">
    <path d="M 0 0 H 300 A 20 20 0 0 1 300 40 H 0 A 20 20 1 0 1 0 0"
          fill="url(#paint0_linear)"/>
    <path d="M 0 60 H 300 A 20 20 0 0 1 300 100 H 0 A 20 20 0 0 1 0 60"
          fill="url(#paint1_linear)"/>
    <path d="M 0 120 H 300 A 20 20 0 0 1 300 160 H 0 A 20 20 0 0 1 0 120"
          fill="url(#paint0_linear)"/>
    <path d="M 0 180 H 300 A 20 20 0 0 1 300 220 H 0 A 20 20 0 0 1 0 180"
          fill="url(#paint1_linear)"/>
    <path d="M 0 240 H 300 A 20 20 0 0 1 300 280 H 0 A 20 20 0 0 1 0 240"
          fill="url(#paint0_linear)"/>
    <path d="M 0 300 H 300 A 20 20 0 0 1 300 340 H 0 A 20 20 0 0 1 0 300"
          fill="url(#paint1_linear)"/>

    <text x="400" y="220" font-family="Verdana" font-size="120" fill="black">Custom Progress Bar</text>
    <text x="50" y="500" font-family="Verdana" font-size="90" fill="black">Colorful plugin for IDEA based IDEs</text>
    <text x="-100" y="600" font-family="Verdana" font-size="70" fill="black" >Progress</text>
    <path d="M -100 620 H 200 A 20 20 0 0 1 200 660 H -100 A 20 20 1 0 1 -100 620" fill="url(#paint2_linear)"/>
    <text x="550" y="600" font-family="Verdana" font-size="70" fill="black">With</text>
    <path d="M 500 620 H 800 A 20 20 0 0 1 800 660 H 500 A 20 20 1 0 1 500 620" fill="url(#paint3_linear)"/>
    <text x="1150" y="600" font-family="Verdana" font-size="70" fill="black">Your</text>
    <path d="M 1100 620 H 1400 A 20 20 0 0 1 1400 660 H 1100 A 20 20 1 0 1 1100 620" fill="url(#paint4_linear)"/>
    <text x="1750" y="600" font-family="Verdana" font-size="70" fill="black">Style</text>
    <path d="M 1700 620 H 2000 A 20 20 0 0 1 2000 660 H 1700 A 20 20 1 0 1 1700 620" fill="url(#paint5_linear)"/>

    <defs>
        <linearGradient id="paint0_linear" x1="-30" y1="20" x2="330" y2="380"
                        gradientUnits="userSpaceOnUse">
            <stop offset="0.01" stop-color="#ea1a18"/>
            <stop offset="0.12" stop-color="#ff6f00"/>
            <stop offset="0.20" stop-color="#fcff00"/>
            <stop offset="0.30" stop-color="#00e020"/>
            <stop offset="0.60" stop-color="#0021ff"/>
            <stop offset="0.80" stop-color="#c400ff"/>
        </linearGradient>
    </defs>

    <defs>
        <linearGradient id="paint1_linear" x1="-30" y1="20" x2="330" y2="380"
                        gradientUnits="userSpaceOnUse">
            <stop offset="0.20" stop-color="#c400ff"/>
            <stop offset="0.40" stop-color="#0021ff"/>
            <stop offset="0.70" stop-color="#00e020"/>
            <stop offset="0.80" stop-color="#fcff00"/>
            <stop offset="0.88" stop-color="#ff6f00"/>
            <stop offset="0.99" stop-color="#ea1a18"/>
        </linearGradient>
    </defs>

    <defs>
        <linearGradient id="paint2_linear" x1="400" y1="220" x2="700" y2="660"
                        gradientUnits="userSpaceOnUse">
            <stop offset="0.2" stop-color="#00e020"/>
            <stop offset="0.4" stop-color="#c400ff"/>
        </linearGradient>
    </defs>

    <defs>
        <linearGradient id="paint3_linear" x1="1000" y1="220" x2="1300" y2="660"
                        gradientUnits="userSpaceOnUse">
            <stop offset="0.2" stop-color="#ea1a18"/>
            <stop offset="0.4" stop-color="#0021ff"/>
        </linearGradient>
    </defs>

    <defs>
        <linearGradient id="paint4_linear" x1="1600" y1="220" x2="1900" y2="660"
                        gradientUnits="userSpaceOnUse">
            <stop offset="0.2" stop-color="#0021ff"/>
            <stop offset="0.4" stop-color="#c400ff"/>
        </linearGradient>
    </defs>

    <defs>
        <linearGradient id="paint5_linear" x1="2200" y1="220" x2="2500" y2="660"
                        gradientUnits="userSpaceOnUse">
            <stop offset="0.20" stop-color="#00e020"/>
            <stop offset="0.40" stop-color="#fcff00"/>
        </linearGradient>
    </defs>
</svg>